<svg width="220" height="50" viewBox="0 0 220 50" fill="none" xmlns="http://www.w3.org/2000/svg">
  <!-- Original Farmhouse & Fields Emblem -->
  <g id="farm-emblem">
    <circle cx="25" cy="25" r="25" fill="#EECE38"/>
    <path d="M24.9999 5C13.9721 5 5 13.9719 5 24.9998C5 36.0279 13.9719 45 24.9999 45C36.0279 45 45 36.0281 45 24.9998C45 13.9719 36.0281 5 24.9999 5ZM6.12734 25.1837C13.0937 27.4435 19.1892 30.5597 24.5831 34.3463C23.3118 34.8411 22.1001 35.3561 20.9519 35.8794C15.6075 31.4707 9.2349 28.9833 6.36639 28.0116C6.2179 27.0893 6.13653 26.1452 6.12734 25.1837ZM6.57355 29.0941C9.497 30.1225 15.1311 32.4295 19.9881 36.3269C18.9361 36.8258 17.9443 37.3288 17.0123 37.8253C13.8793 35.1889 9.82678 33.2344 7.57903 32.2624C7.15457 31.248 6.81653 30.1888 6.57355 29.0941ZM13.407 39.8848C11.2459 38.1978 9.4595 36.0517 8.19736 33.5938C10.3896 34.6045 13.5506 36.2489 16.1019 38.318C15.1257 38.857 14.2269 39.3833 13.407 39.8848ZM39.5729 36.9828C32.3999 38.3334 25.9098 41.3345 21.7555 43.5952C21.3569 43.5258 20.9626 43.4433 20.5728 43.3494C24.8012 40.9604 32.1693 37.3783 40.3127 36.0226C40.0757 36.3506 39.8296 36.6712 39.5729 36.9828ZM41.8936 33.4115C31.1383 34.3555 21.1647 39.8342 17.2701 42.2185C16.9394 42.0696 16.6143 41.9106 16.2943 41.7436C20.133 39.4975 24.2308 37.4155 28.4661 35.7862C34.4038 33.5017 38.4187 32.8294 42.3068 32.5288C42.1765 32.8271 42.0387 33.1215 41.8936 33.4115ZM43.7575 27.1008C35.17 24.6173 26.6076 25.6093 21.2003 26.776C21.2888 26.8295 21.8121 27.3085 21.9357 27.523C22.0583 27.5119 26.5956 26.7851 29.1426 26.6171C33.5267 26.3285 38.5772 26.5773 43.6259 28.0599C43.5822 28.3267 43.5339 28.5917 43.4791 28.8543C37.0458 27.8425 30.1885 28.623 24.9549 29.9104C25.1617 30.1665 25.3036 30.4671 25.3728 30.792C30.4578 29.5608 37.0597 28.8251 43.2592 29.7878C43.2303 29.8981 43.2005 30.0079 43.1696 30.1174C36.6322 30.5604 30.7133 32.0684 25.6655 33.9361C25.5279 33.8379 25.3904 33.7424 25.253 33.6457C25.286 33.0564 24.9791 32.4998 24.4395 32.2236C25.1864 31.3794 24.7474 30.0111 23.6256 29.7672C23.7271 28.6496 22.613 27.8132 21.5665 28.2336C21.5236 28.0526 21.2343 27.2358 20.3998 27.1088C19.8715 27.0284 19.3092 27.1876 18.9477 27.6235C18.8388 27.5329 18.32 27.1392 17.5991 27.3297C17.1856 27.439 16.8261 27.6694 16.6045 28.1963C16.5303 28.2521 15.6626 27.9816 15.4667 27.8865C15.4667 27.8865 15.9142 27.8076 16.1071 27.8143C16.5048 27.0382 17.3654 26.5518 18.3002 26.6926C18.1518 26.3915 17.8989 26.1405 17.5641 26.0027C18.0112 24.9143 17.0204 23.7857 15.8867 24.0809C15.7723 23.0205 14.5788 22.4547 13.6854 23.0397C12.9947 22.2241 11.6833 22.4301 11.277 23.4186C11.2729 23.4296 11.2699 23.4405 11.2655 23.4516C10.1944 22.7035 8.76544 23.6765 9.06073 24.9438C8.95667 24.9629 8.8573 24.9978 8.76037 25.0394C8.52302 24.9559 8.28735 24.8759 8.05356 24.7981C8.17636 24.6944 8.30648 24.6001 8.4499 24.5294C8.46003 24.2343 8.53277 23.9443 8.66757 23.6745C8.65988 23.648 8.66626 23.6267 8.69832 23.6165C9.16478 22.7485 10.153 22.369 11.0357 22.6472C11.2472 22.3765 11.5224 22.1695 11.8336 22.0387L11.6823 21.3857C11.4875 21.3982 11.295 21.449 11.189 21.3035C11.0597 21.1247 11.1154 21.18 12.5581 17.587C12.64 17.383 12.5972 17.4644 16.6891 16.7043C16.5389 16.5453 16.3417 16.4747 16.145 16.4855C16.0636 16.0219 15.5788 15.7549 15.1521 15.9551C14.722 15.5117 14.0231 15.574 13.6622 16.0562C13.1814 15.9094 12.7133 16.3033 12.7545 16.8082C12.1552 16.7705 11.78 17.4659 12.1465 17.9663C11.648 18.1673 11.4073 18.7091 11.5665 19.2204C11.3533 19.2238 11.1455 19.2967 10.9746 19.4317C10.4834 18.5408 9.16665 18.8636 9.12165 19.8824C8.42815 19.4677 7.37505 19.939 7.60847 21.1222C7.17594 21.1222 6.87616 21.5555 7.01939 21.9747C6.78673 21.917 6.55781 21.9592 6.35251 22.0698C7.76408 13.0486 15.5884 6.12454 24.9997 6.12454C34.2626 6.12454 41.9884 12.8315 43.5759 21.6442C43.4165 21.2164 43.1139 20.8581 42.7168 20.6578C42.7956 19.6252 42.0762 18.6851 41.0823 18.6516C41.0849 18.6411 41.085 18.6304 41.0898 18.6214C41.623 17.713 41.2514 16.5986 40.3369 16.3845C39.9585 16.296 39.583 16.3558 39.2587 16.5245C39.0877 15.895 38.5923 15.4622 37.9886 15.2376C37.6538 15.113 37.1615 15.2275 37.0255 15.2328L38.1996 16.9306C38.4802 17.3363 38.1928 17.8909 37.6994 17.8954C37.3782 17.8984 37.1193 18.1596 37.1193 18.4808V20.7345C37.1193 20.9912 37.1191 20.8525 37.0793 21.1916C36.9322 21.1569 36.6843 21.1685 36.5377 21.1361V17.7194H28.6956V20.7349C28.5649 20.7326 28.276 20.7323 27.947 20.7338V20.6106C27.947 20.1779 27.2942 20.179 27.2942 20.6106V20.7379C27.1144 20.7394 26.9443 20.7413 26.8028 20.743C26.6691 20.7448 25.3108 20.8003 24.9708 20.8225V20.6106C24.9708 20.1779 24.318 20.179 24.318 20.6106V20.8691C23.8103 20.9098 23.3491 20.9556 22.9404 21.0017V17.5698L25.5427 13.218L28.3553 16.9537H37.4431L34.0575 12.2084H24.4884L21.2343 17.3365H21.9308V21.1297C21.9278 21.1301 21.9244 21.1307 21.9212 21.1312C21.5551 21.1832 21.2556 21.2314 21.0235 21.2717L20.7344 19.7155L15.9714 20.6003L16.4302 23.07L16.4326 23.1126L16.1572 23.1638C16.217 23.2584 16.2708 23.3571 16.3145 23.4611C16.4326 23.4651 16.5498 23.4797 16.6649 23.5042C16.9844 23.6554 17.3475 23.8683 17.608 24.1441C21.1032 23.4247 24.6394 23.0432 27.9985 23.0432C32.3934 23.0432 36.383 23.6705 39.9164 24.913C40.9097 25.2621 42.5168 25.9412 43.811 26.5494C43.796 26.7339 43.778 26.9174 43.7575 27.1008ZM35.1241 22.6872C34.4064 22.5601 33.6752 22.453 32.9303 22.3662V20.5478C32.9303 19.781 33.4215 19.1593 34.0273 19.1593C34.6329 19.1593 35.1241 19.781 35.1241 20.5478V22.6872ZM31.6149 18.4078V20.8858C31.1252 20.8436 30.6436 20.8106 30.1732 20.7863V18.4078H31.6149ZM27.3483 21.3049V21.9359H26.5588V21.3212C26.8157 21.3135 27.0793 21.308 27.3483 21.3049ZM27.9228 21.3009C28.1755 21.3009 28.4341 21.3039 28.696 21.3086V21.8671L28.6874 21.9357H27.9228V21.3009ZM25.9844 21.3425V21.9359H24.971V21.3977C25.2939 21.3765 25.6317 21.3575 25.9844 21.3425ZM24.3182 21.4457V21.9359H22.9406V21.5801C23.3472 21.5332 23.8084 21.4863 24.3182 21.4457ZM21.9308 22.4695C21.7079 22.4967 21.4851 22.5259 21.262 22.5559L21.1284 21.8366C21.2995 21.8069 21.5091 21.7728 21.7536 21.7364L21.9308 22.4695ZM18.0965 22.166L17.2206 22.3285L16.9371 20.8026L17.8127 20.6398L18.0965 22.166ZM43.1165 25.2109C43.4066 24.9959 43.5309 24.665 43.4662 24.3438C43.4071 24.0508 43.2315 23.8282 42.8782 23.7343C42.9641 23.5466 43.1362 23.2489 42.9259 22.8906C42.5753 22.2931 42.0601 22.4689 41.8658 22.5113C41.8529 22.3236 41.857 21.9009 41.4346 21.6787C41.2001 21.5553 40.8823 21.5495 40.5187 21.7672C40.2347 21.402 39.9019 21.3058 39.6201 21.369C39.1895 21.4657 39.0704 21.8137 38.9956 22.0109C38.9154 21.9579 38.7491 21.8429 38.6767 21.8092C38.3541 21.6611 38.0115 21.7462 37.7871 21.9582C37.4399 22.2865 37.5456 22.6624 37.5814 22.8499C37.3939 22.8771 37.214 22.8854 37.004 23.0726C36.8157 23.0286 36.6251 22.9875 36.4346 22.9459C36.4346 22.9459 36.5874 22.5747 36.9841 22.5128C36.9329 21.5733 37.935 20.9393 38.7577 21.3802C39.1786 20.7201 40.0992 20.6299 40.6387 21.1796C41.3356 20.8646 42.1532 21.2689 42.3177 22.0237C42.9191 21.9828 43.4716 22.3926 43.5866 23.0113C43.5866 23.0113 43.6904 23.0503 43.792 23.2598C44.0165 24.1331 43.9126 24.7649 43.8652 25.584C43.6179 25.4565 43.3685 25.332 43.1165 25.2109Z" fill="#2C2C2C"/>
    <path d="M26.4122 17.3369H24.9702V19.849H26.4122V17.3369Z" fill="#2C2C2C"/>
    <path d="M14.5326 20.5762L13.6572 20.7388L13.9406 22.2647L14.816 22.1021L14.5326 20.5762Z" fill="#2C2C2C"/>
    <path d="M19.5967 14.0152C20.6065 14.0152 21.4252 13.1968 21.4252 12.1865C21.4252 11.1765 20.6065 10.3579 19.5967 10.3579C18.5863 10.3579 17.7676 11.1765 17.7676 12.1865C17.7676 13.1968 18.5863 14.0152 19.5967 14.0152Z" fill="#2C2C2C"/>
    <path d="M18.7543 16.75L12.9619 17.8939L11.7583 20.891L11.8575 20.8842C11.9756 20.8752 12.084 20.9566 12.1111 21.0732L12.3215 21.982C12.4121 21.9692 12.5035 21.9602 12.5967 21.9602C12.6007 21.9602 12.604 21.9606 12.6078 21.9606L12.4497 21.1096L13.5396 18.1728L15.6252 20.0818C15.6276 20.0814 15.6293 20.0797 15.6312 20.0794L21.1438 19.0557L18.7543 16.75Z" fill="#2C2C2C"/>
  </g>

  <!-- Brand Typography: GreenRoot -->
  <text x="58" y="31" font-family="'Outfit', 'Inter', -apple-system, sans-serif" font-size="24" font-weight="900" fill="#002719" letter-spacing="-0.5">Green<tspan fill="#D99B1E">Root</tspan></text>
  <text x="59" y="42" font-family="'Outfit', 'Inter', -apple-system, sans-serif" font-size="8.5" font-weight="800" fill="#15803D" letter-spacing="2.2">ORGANIC FARM</text>
</svg>
